# xmcd
#
# Track frame offsets:
#	150
#	14991
#	29901
#	45443
#	61839
#	75435
#	92982
#	112004
#	125941
#	141883
#	156619
#	170682
#	185298
#
# Disc length: 2762 seconds
#
# Revision: 1
# Processed by: cddbd v1.5.2PL0 Copyright (c) Steve Scherf et al.
# Submitted via: audiograbber 1.83.01
#
DISCID=c10ac80d
DTITLE=Slam and Howie and the Reserve Men - Renegade
DYEAR=2011
DGENRE=Country
TTITLE0=Mountain King
TTITLE1=Wakin' Up
TTITLE2=Fighting On
TTITLE3=Gangsters and Thieves
TTITLE4=Berlin
TTITLE5=Desert Train
TTITLE6=Hired Gun
TTITLE7=Silvertown
TTITLE8=Devil's Fever
TTITLE9=Crack My Cadillac
TTITLE10=Mr Ronnie Free
TTITLE11=Restless Heart
TTITLE12=Dead Man's Fate
EXTD=
EXTT0=
EXTT1=
EXTT2=
EXTT3=
EXTT4=
EXTT5=
EXTT6=
EXTT7=
EXTT8=
EXTT9=
EXTT10=
EXTT11=
EXTT12=
PLAYORDER=
